<svg id="Layer_1" data-name="Layer 1" xmlns="http://www.w3.org/2000/svg" xmlns:xlink="http://www.w3.org/1999/xlink" viewBox="0 0 1411.82 1473.84"><defs><style>.cls-1{fill:url(#linear-gradient);}.cls-2,.cls-3{fill:#fff;}.cls-3{font-size:170.34px;font-family:Roboto-Bold, Roboto;font-weight:700;letter-spacing:-0.01em;}.cls-4{letter-spacing:-0.03em;}.cls-5{letter-spacing:-0.02em;}.cls-6{letter-spacing:-0.01em;}</style><linearGradient id="linear-gradient" x1="321.7" y1="815.26" x2="1194.8" y2="815.26" gradientUnits="userSpaceOnUse"><stop offset="0" stop-color="#ff9229"/><stop offset="1" stop-color="#d6383d"/></linearGradient></defs><path class="cls-1" d="M637.34,1153.05c56.28,22,183.66,40.06,302.7-25.33,1.57,3.25,3.22,6.44,4.68,9.73,5.3,12,10.44,24,15.84,35.89,1.62,3.57,1.62,5.61-2.42,7.67-51.33,26.15-105.59,42-163,46.63-61,4.94-120.55-2-178.52-21.88-.8-.27-1.67-.38-3.28-.75-3.73,8-7.5,16-11.2,24.06-6.3,13.66-12.77,27.39-19.26,41-1,2-3.36,4.67-5.14,4.7-18.93.34-37.87.21-58,.21,1.26-3.27,2.35-5.67,3.39-7.94q89.65-195.21,179.33-390.38,44-95.68,87.9-191.35c2-4.35,2.16-7.9.07-12.27-7.69-16.13-15-32.45-22.45-48.69-1.06-2.3-2.22-4.55-4-8.13-5.45,11.71-10.32,22.08-15.1,32.49Q638.63,888.75,528.4,1128.84c-21.09,46-43.08,91.66-63.82,137.77-2.89,6.44-6.3,8.52-13.12,8.33-17-.48-33.95-.16-52.18-.16,3.14-7,6.54-12.94,9.31-19q29.45-64.18,59-128.31c2.14-4.61,2.08-7.32-2-11Q346.41,1007.24,325.24,846.84C302.1,669.17,394.12,490.4,553.57,408.45c139.93-71.91,281.49-70.9,418.88,5.56,117.84,65.57,189,167.79,214.77,300.61,13.22,68.22,8.77,135.76-10.4,202.49-1.79,6.23-4.54,7.88-10.8,7.88q-208.35-.27-416.71-.26c-5.56,0-8.31,1.47-10.69,6.71q-49.36,108.28-99.2,216.37C638.71,1149.37,638.15,1151,637.34,1153.05Zm241.3-420.78c1.63,3.24,2.77,5.32,3.76,7.48C901,780.15,919.63,820.5,937.91,861c2.61,5.78,5.57,8,12.05,7.94,57.35-.27,114.7-.16,172-.17,9.41,0,9.46,0,11-9.2,13.6-82.08,2.78-160.6-34-235.44C1034.15,492.3,895,408.46,748.21,413.3c-101.84,3.35-189.78,40.47-260.69,113.48-91,93.71-124,206.52-103.56,335.29.76,4.79,2.26,6.91,7.75,6.89q94.2-.35,188.4-.05c4.53,0,6.92-1.3,8.86-5.57,17.73-39.11,35.71-78.1,53.63-117.12q58.92-128.36,117.86-256.7c.92-2,2.06-3.95,3.67-7,2.14,4.45,3.67,7.53,5.11,10.66q41.19,89.73,82.48,179.41c2.23,4.84,2.11,8.6-.1,13.37q-40.73,88.13-81.09,176.44c-.85,1.87-1.53,3.81-2.33,5.84H879.66c-1.27-2.9-2.18-5.08-3.17-7.23-8.35-18.24-16.61-36.51-25.15-54.65a12.73,12.73,0,0,1-.19-11.72c8.13-18.09,15.9-36.34,23.83-54.52C876,737.8,877.11,735.54,878.64,732.27ZM495,1067.54c22-47.88,43.51-94.76,65.35-142.34H401.45A380.24,380.24,0,0,0,495,1067.54Z" transform="translate(-49.76 -6.66)"/><path class="cls-2" d="M529.66,405.56V313.39a7.42,7.42,0,0,1,1-3.71c26.26-45.54,93.17-75.07,227.78-78,124.5.38,194.29,29.21,226,77.82a7.52,7.52,0,0,1,1.19,4.07V406a7.53,7.53,0,0,1-12,6C908.81,363.89,835.75,337.31,752.21,338c-90.3,3.69-156.81,31.95-210.43,73.53A7.51,7.51,0,0,1,529.66,405.56Z" transform="translate(-49.76 -6.66)"/><path class="cls-2" d="M504.73,345.81V315.56a62.33,62.33,0,0,1,15.32-41.15c30-34.12,92-60.08,218.55-69.61.22,0,.45,0,.67,0,163.14,1.44,230.71,35.11,259.06,82a69.32,69.32,0,0,1,9.82,35.88v40.86a7.52,7.52,0,0,0,11.12,6.6L1195.55,274a7.52,7.52,0,0,0,.14-13.12L754.63,7.66a7.49,7.49,0,0,0-7.31-.1L320.45,237.32a7.53,7.53,0,0,0-.48,13L332,258a7.52,7.52,0,0,1,3.48,6.68l-1.9,42.71a7.52,7.52,0,0,0,6.94,7.83l.53,0a7.52,7.52,0,0,0,8.1-7.31l.69-27.56a7.53,7.53,0,0,1,11.35-6.29l132.15,78.21A7.52,7.52,0,0,0,504.73,345.81Z" transform="translate(-49.76 -6.66)"/><path class="cls-2" d="M335.71,382.25l-2.37,11.85A25.89,25.89,0,0,1,329,404.22c-7.93,11-13.78,28.58-18.43,49.94a60.68,60.68,0,0,0-1.37,12.95v34.37a7.52,7.52,0,0,0,7.52,7.52h52.57a7.52,7.52,0,0,0,7.52-7.52V464.36a59,59,0,0,0-3.17-19.13c-6.19-18-12.25-33.3-18-42.09a29,29,0,0,1-4.66-14.33l-.31-5.51a7.52,7.52,0,0,0-7.51-7.1h0A7.52,7.52,0,0,0,335.71,382.25Z" transform="translate(-49.76 -6.66)"/><path class="cls-2" d="M364.08,344.32c0,11.66-9.46,24.53-21.12,24.53S321.83,356,321.83,344.32a21.13,21.13,0,1,1,42.25,0Z" transform="translate(-49.76 -6.66)"/><text class="cls-3" transform="translate(0 1427.68) scale(0.94 1)">Af<tspan class="cls-4" x="171.58" y="0">r</tspan><tspan x="228.67" y="0">oasian </tspan><tspan class="cls-5" x="763.9" y="0">E</tspan><tspan class="cls-6" x="856.09" y="0">ducation</tspan></text></svg>